<?xml version="1.0" standalone="no"?>
<!DOCTYPE svg PUBLIC "-//W3C//DTD SVG 20010904//EN"
 "http://www.w3.org/TR/2001/REC-SVG-20010904/DTD/svg10.dtd">
<svg version="1.0" xmlns="http://www.w3.org/2000/svg"
 width="512.000000pt" height="512.000000pt" viewBox="0 0 512.000000 512.000000"
 preserveAspectRatio="xMidYMid meet">
<metadata>
Created by potrace 1.14, written by Peter Selinger 2001-2017
</metadata>
<g transform="translate(0.000000,512.000000) scale(0.100000,-0.100000)"
fill="#000000" stroke="none">
<path d="M0 2560 l0 -2560 2560 0 2560 0 0 2560 0 2560 -2560 0 -2560 0 0
-2560z m2925 2086 c865 -184 1475 -946 1475 -1841 0 -301 -62 -568 -195 -840
-257 -527 -727 -890 -1300 -1005 -153 -31 -425 -38 -586 -16 -281 39 -537 137
-766 292 -700 474 -998 1357 -732 2168 220 669 792 1156 1480 1261 66 10 155
13 299 10 173 -3 224 -7 325 -29z m-108 -3942 c32 -6 53 -54 53 -119 0 -49 -4
-60 -29 -86 -23 -23 -39 -29 -70 -29 -48 0 -51 -7 -13 -42 18 -18 41 -28 67
-30 39 -3 40 -4 40 -43 l0 -40 -58 0 -57 1 -78 77 c-50 50 -85 77 -100 77 -21
0 -22 -4 -22 -75 0 -82 -7 -93 -55 -81 l-25 6 0 195 0 194 58 3 c67 4 257 -1
289 -8z m-1682 -14 c3 -11 3 -29 0 -40 -6 -19 -15 -20 -161 -20 l-154 0 0 -35
0 -35 120 0 c138 0 171 -11 189 -61 26 -76 3 -159 -49 -178 -34 -11 -296 -16
-324 -5 -11 4 -16 19 -16 45 l0 39 155 0 155 0 0 35 0 35 -121 0 c-168 0 -188
13 -189 123 0 59 3 71 25 92 24 25 27 25 194 25 161 0 170 -1 176 -20z m405 0
c26 -26 33 -59 26 -117 -7 -60 -7 -59 0 -111 10 -69 -3 -110 -39 -133 -29 -17
-48 -19 -192 -17 l-160 3 -3 43 -3 42 155 0 156 0 0 35 0 35 -156 0 -155 0 3
43 3 42 153 3 152 3 0 34 0 35 -155 0 -155 0 0 40 0 40 175 0 c161 0 177 -2
195 -20z m460 -20 l0 -40 -155 0 -155 0 0 -115 0 -115 156 0 155 0 -3 -42 -3
-43 -155 -3 c-233 -4 -240 2 -240 203 0 127 11 176 42 188 7 3 91 6 186 6
l172 1 0 -40z m120 -115 l0 -155 115 0 115 0 0 155 0 155 40 0 40 0 0 -173 0
-174 -26 -24 c-24 -22 -35 -24 -147 -27 -130 -4 -190 7 -206 36 -5 10 -10 85
-11 167 -2 216 -6 195 40 195 l40 0 0 -155z m1156 130 c24 -24 25 -31 20 -93
-6 -82 -6 -73 0 -153 5 -60 3 -69 -19 -95 l-25 -29 -174 0 -173 0 0 40 0 40
158 3 157 3 0 34 0 34 -157 3 -158 3 0 40 0 40 158 3 158 3 -3 32 -3 32 -157
3 -158 3 0 39 0 40 175 0 c175 0 176 0 201 -25z m650 0 c24 -24 24 -25 22
-197 l-3 -173 -35 0 -35 0 -3 158 -3 158 -37 -3 -37 -3 -3 -153 c-3 -165 -5
-171 -57 -158 l-25 6 0 155 0 155 -35 0 -35 0 0 -132 c0 -73 -3 -143 -6 -155
-7 -26 -27 -35 -60 -27 l-24 6 0 160 c0 160 5 189 39 215 11 8 63 12 164 13
144 0 149 -1 173 -25z m429 1 c23 -23 24 -29 24 -174 0 -147 -1 -150 -25 -173
-25 -23 -33 -24 -195 -27 l-169 -3 0 45 0 46 155 0 155 0 0 35 0 35 -154 0
c-150 0 -154 0 -159 22 -4 12 -4 33 -1 45 6 23 8 23 160 23 l154 0 0 35 0 35
-155 0 -155 0 0 40 0 40 170 0 c167 0 171 -1 195 -24z"/>
<path d="M2338 4545 c-693 -95 -1259 -609 -1438 -1305 -67 -263 -67 -607 0
-871 205 -803 924 -1351 1729 -1316 176 8 295 29 456 82 420 137 768 430 982
825 86 157 158 374 194 580 20 110 17 441 -4 555 -94 504 -353 907 -756 1177
-348 232 -756 328 -1163 273z"/>
<path d="M2557 623 c-4 -3 -7 -19 -7 -35 l0 -28 115 0 115 0 0 35 0 35 -108 0
c-60 0 -112 -3 -115 -7z"/>
</g>
</svg>
